<svg width="70" height="70" viewBox="0 0 70 70" fill="none" xmlns="http://www.w3.org/2000/svg">
<path d="M6.42116 51.5L35 2L63.5788 51.5H6.42116Z" stroke="#BF0000" stroke-width="2"/>
<path d="M36.5674 36.7158H33.5059L33.1689 21.6719H36.9189L36.5674 36.7158ZM33.0664 41.3154C33.0664 40.7588 33.2471 40.2998 33.6084 39.9385C33.9697 39.5674 34.4629 39.3818 35.0879 39.3818C35.7129 39.3818 36.2061 39.5674 36.5674 39.9385C36.9287 40.2998 37.1094 40.7588 37.1094 41.3154C37.1094 41.8525 36.9336 42.3018 36.582 42.6631C36.2305 43.0244 35.7324 43.2051 35.0879 43.2051C34.4434 43.2051 33.9453 43.0244 33.5938 42.6631C33.2422 42.3018 33.0664 41.8525 33.0664 41.3154Z" fill="#BF0000"/>
</svg>
