<svg width="34" height="34" viewBox="0 0 34 34" fill="none" xmlns="http://www.w3.org/2000/svg">
<path d="M16.6243 33.0303C21.0202 33.0303 25.1413 31.3426 28.2419 28.2419C31.3426 25.1413 33.0303 21.0202 33.0303 16.6243C33.0303 12.2285 31.3426 8.10737 28.2419 5.00672C25.1413 1.90608 21.0202 0.218384 16.6243 0.218384C12.2285 0.218384 8.10737 1.90608 5.00672 5.00672C1.90608 8.10737 0.218384 12.2285 0.218384 16.6243C0.218384 21.0202 1.90608 25.1413 5.00672 28.2419C8.10737 31.3426 12.2285 33.0303 16.6243 33.0303ZM17.5663 30.2436C17.2523 30.2829 16.9383 30.2829 16.6243 30.2829C16.1926 30.2829 15.7609 30.2436 15.3291 30.2044C13.9162 28.0065 12.8565 25.6515 12.2285 23.1789H19.1755C19.411 23.7676 19.8427 24.3171 20.353 24.6703C19.6857 26.6327 18.7438 28.4774 17.5663 30.2436ZM21.2949 29.4587C22.0407 28.085 22.6294 26.7112 23.1004 25.259C24.2386 25.0236 25.1413 24.2386 25.573 23.1789H28.5952C27.0252 26.044 24.3956 28.2812 21.2949 29.4587ZM30.2436 16.6243C30.2436 17.9195 30.0474 19.1755 29.7334 20.3922H25.4945C25.2591 19.882 24.8666 19.411 24.3956 19.0578C24.4741 18.1943 24.5133 17.3308 24.5133 16.4673C24.5133 15.2506 24.4348 14.0339 24.2778 12.8565H29.6942C30.0866 14.0339 30.2436 15.3291 30.2436 16.6243ZM28.5952 10.0698H23.8068C23.2966 7.91113 22.5509 5.8702 21.5304 3.90776C24.5133 5.04598 27.0252 7.28315 28.5952 10.0698ZM21.7659 16.4673C21.7659 17.1346 21.7267 17.8018 21.6874 18.469C20.5885 18.7045 19.6857 19.411 19.254 20.3922H11.679C11.522 19.2148 11.4043 17.998 11.4043 16.8206C11.4043 16.0749 11.4435 15.3291 11.522 14.5834C12.5425 14.3872 13.3667 13.7199 13.8769 12.8565H21.5304C21.6874 14.0339 21.7659 15.2506 21.7659 16.4673ZM15.6039 3.04429C15.9571 3.00504 16.3103 3.00504 16.6243 3.00504C17.0168 3.00504 17.4093 3.00504 17.8018 3.04429C19.2148 5.24221 20.2745 7.59714 20.9024 10.0698H14.0732C13.8377 9.40258 13.4059 8.81385 12.8565 8.38211C13.5629 6.49817 14.4657 4.73198 15.6039 3.04429ZM11.8752 3.82926C11.208 5.08522 10.6193 6.41967 10.1483 7.75413C8.93159 7.98962 7.95037 8.89234 7.55789 10.0306H4.69274C6.22344 7.2439 8.7746 5.00672 11.8752 3.82926ZM3.00504 16.6243C3.00504 15.3291 3.20128 14.0339 3.55452 12.8565H7.83263C8.06812 13.2882 8.42136 13.6807 8.81385 13.9947C8.73535 14.9366 8.65685 15.8786 8.65685 16.8206C8.65685 18.0373 8.73535 19.2148 8.89235 20.3922H3.55452C3.16204 19.1755 3.00504 17.9195 3.00504 16.6243ZM9.36333 23.1396C9.87356 25.259 10.6193 27.3392 11.6398 29.3017C8.65685 28.1242 6.18419 25.9263 4.65349 23.1396H9.36333Z" fill="#FFD7D7"/>
</svg>
