<svg width="254" height="40" viewBox="0 0 254 40" fill="none" xmlns="http://www.w3.org/2000/svg">
<path d="M15.9732 31.3922C11.6294 31.3922 7.99303 29.9277 5.06398 26.9986C2.13493 24.0696 0.67041 20.4133 0.67041 16.0297C0.67041 11.7258 2.13493 8.09932 5.06398 5.15035C7.99303 2.2213 11.6294 0.756775 15.9732 0.756775C20.3369 0.756775 24.0829 2.12167 27.2112 4.85146L23.1464 9.30481C21.0542 7.67092 18.6631 6.85397 15.9732 6.85397C13.2235 6.8739 11.0018 7.74066 9.30811 9.45425C7.63437 11.1479 6.7975 13.3198 6.7975 15.9699C6.7975 18.8192 7.64433 21.0808 9.338 22.7545C11.0317 24.4283 13.2534 25.2651 16.0031 25.2651C18.2148 25.2651 19.9085 24.8367 21.0841 23.9799V18.7196L17.0193 18.7495V13.011H27.2112V27.3274C24.1028 30.0373 20.3568 31.3922 15.9732 31.3922ZM38.1801 10.9487V13.2202C39.6546 11.7258 41.438 10.9786 43.5301 10.9786C44.1877 10.9786 44.8153 11.0284 45.4131 11.128L44.5165 16.7769C43.8589 16.1791 42.9125 15.8603 41.6771 15.8204C40.2823 15.9201 39.1166 16.9263 38.1801 18.8392V31.3922H32.4715V11.5763L38.1801 10.9487ZM58.4145 31.6014C55.4456 31.6014 52.9649 30.6052 50.9723 28.6126C48.9997 26.6201 48.0134 24.1493 48.0134 21.2003C48.0134 18.2314 48.9997 15.7507 50.9723 13.7582C52.9649 11.7656 55.4456 10.7693 58.4145 10.7693C61.3834 10.7693 63.8641 11.7656 65.8567 13.7582C67.8492 15.7507 68.8455 18.2314 68.8455 21.2003C68.8455 24.1692 67.8492 26.64 65.8567 28.6126C63.8641 30.6052 61.3834 31.6014 58.4145 31.6014ZM58.4145 26.6699C59.9487 26.6699 61.2041 26.1418 62.1804 25.0858C63.1567 24.0497 63.6449 22.7545 63.6449 21.2003C63.6449 19.6461 63.1567 18.351 62.1804 17.3149C61.2041 16.2588 59.9388 15.7308 58.3846 15.7308C56.8503 15.7308 55.595 16.2588 54.6187 17.3149C53.6623 18.351 53.184 19.6461 53.184 21.2003C53.184 22.7545 53.6623 24.0497 54.6187 25.0858C55.595 26.1418 56.8603 26.6699 58.4145 26.6699ZM85.0449 24.1593V10.9487H90.7536V31.3922H85.0449V29.5391C83.67 30.7745 82.0361 31.3922 80.1432 31.3922C77.5529 31.3922 75.5803 30.6052 74.2254 29.031C72.8505 27.4569 72.1631 25.6537 72.1631 23.6213V10.9487H77.9016V22.1866C77.9016 23.5416 78.2403 24.5976 78.9178 25.3548C79.5953 26.112 80.6214 26.5105 81.9963 26.5503C83.1918 26.4706 84.208 25.6736 85.0449 24.1593ZM101.334 40L95.6253 39.9701V11.5763L101.334 10.9487V12.5925C102.868 11.4966 104.373 10.9487 105.847 10.9487C108.975 10.9487 111.456 11.9748 113.289 14.0272C115.142 16.0596 116.069 18.4406 116.069 21.1704C116.069 23.9002 115.142 26.2813 113.289 28.3137C111.456 30.3661 108.975 31.3922 105.847 31.3922C103.795 31.2527 102.29 30.6948 101.334 29.7185V40ZM101.334 19.3174V22.635C101.613 24.9264 103.048 26.2714 105.638 26.6699C108.906 26.4108 110.749 24.7172 111.167 21.5889C111.028 17.7632 109.185 15.7806 105.638 15.6411C103.048 16.0596 101.613 17.285 101.334 19.3174ZM129.369 31.6014C126.4 31.6014 123.929 30.6052 121.957 28.6126C119.964 26.6201 118.968 24.1493 118.968 21.2003C118.968 18.2314 119.964 15.7507 121.957 13.7582C123.929 11.7656 126.4 10.7693 129.369 10.7693C132.338 10.7693 134.819 11.7656 136.811 13.7582C138.804 15.7507 139.8 18.2314 139.8 21.2003C139.8 24.1692 138.804 26.64 136.811 28.6126C134.819 30.6052 132.338 31.6014 129.369 31.6014ZM129.369 26.6699C130.923 26.6699 132.179 26.1418 133.135 25.0858C134.111 24.0497 134.6 22.7545 134.6 21.2003C134.6 19.6461 134.111 18.351 133.135 17.3149C132.179 16.2588 130.913 15.7308 129.339 15.7308C127.805 15.7308 126.55 16.2588 125.573 17.3149C124.617 18.351 124.139 19.6461 124.139 21.2003C124.139 22.7545 124.617 24.0497 125.573 25.0858C126.55 26.1418 127.815 26.6699 129.369 26.6699ZM149.334 18.3311V31.3922H143.596V11.5763L149.334 10.9487V12.7718C150.61 11.5763 152.244 10.9786 154.236 10.9786C156.807 10.9786 158.779 11.7556 160.154 13.3098C161.648 11.7556 163.89 10.9786 166.879 10.9786C169.469 10.9786 171.452 11.7556 172.827 13.3098C174.182 14.8839 174.859 16.6972 174.859 18.7495V31.3922H169.15V20.1542C169.15 18.7993 168.842 17.7433 168.224 16.9861C167.606 16.2488 166.61 15.8603 165.235 15.8204C164.099 15.9001 163.123 16.6474 162.306 18.0621C162.226 18.4805 162.186 18.9089 162.186 19.3473V31.3922H156.478V20.1542C156.478 18.7993 156.169 17.7433 155.551 16.9861C154.934 16.2488 153.937 15.8603 152.562 15.8204C151.307 15.9001 150.231 16.737 149.334 18.3311ZM182.54 16.8964L180.299 13.4294C182.889 11.7955 185.888 10.9786 189.295 10.9786C191.746 10.9786 193.679 11.656 195.093 13.011C196.528 14.3858 197.245 16.4282 197.245 19.138V31.3922H191.537V29.7782C189.863 30.8542 188.359 31.3922 187.024 31.3922C184.314 31.3922 182.271 30.8144 180.896 29.6587C179.542 28.503 178.864 26.909 178.864 24.8766C178.864 22.9637 179.512 21.2601 180.807 19.7657C182.082 18.2713 184.154 17.5241 187.024 17.5241C188.359 17.5241 189.863 17.9325 191.537 18.7495V18.1218C191.497 16.6274 190.401 15.8105 188.249 15.671C185.798 15.671 183.895 16.0795 182.54 16.8964ZM191.537 25.2651V22.9637C190.999 21.9077 189.704 21.3797 187.651 21.3797C185.2 21.6586 183.905 22.615 183.766 24.2489C183.905 25.8629 185.2 26.7396 187.651 26.8791C189.704 26.8791 190.999 26.3411 191.537 25.2651ZM208.095 18.4207V31.3922H202.356V11.5763L208.095 10.9487V12.8017C209.47 11.5863 211.104 10.9786 212.996 10.9786C215.587 10.9786 217.559 11.7556 218.914 13.3098C220.269 14.8839 220.947 16.6972 220.947 18.7495V31.3922H215.238V20.1542C215.238 18.7993 214.899 17.7433 214.222 16.9861C213.524 16.2488 212.488 15.8603 211.113 15.8204C209.938 15.9001 208.932 16.7669 208.095 18.4207ZM231.467 31.3922H225.759V10.9487H231.467V31.3922ZM225.549 6.07688C225.549 6.89383 225.818 7.57129 226.356 8.10928C226.914 8.64727 227.672 8.91626 228.628 8.91626C229.564 8.91626 230.312 8.64727 230.87 8.10928C231.408 7.57129 231.677 6.89383 231.677 6.07688C231.677 5.25993 231.408 4.57251 230.87 4.01459C230.312 3.45668 229.545 3.17772 228.568 3.17772C227.652 3.17772 226.914 3.45668 226.356 4.01459C225.818 4.57251 225.549 5.25993 225.549 6.07688ZM239.089 16.8964L236.847 13.4294C239.438 11.7955 242.436 10.9786 245.844 10.9786C248.294 10.9786 250.237 11.656 251.672 13.011C253.087 14.3858 253.794 16.4282 253.794 19.138V31.3922H248.085V29.7782C246.431 30.8542 244.937 31.3922 243.602 31.3922C240.872 31.3922 238.83 30.8144 237.475 29.6587C236.1 28.503 235.413 26.909 235.413 24.8766C235.413 22.9637 236.06 21.2601 237.355 19.7657C238.631 18.2713 240.713 17.5241 243.602 17.5241C244.917 17.5241 246.411 17.9325 248.085 18.7495V18.1218C248.065 16.6274 246.979 15.8105 244.827 15.671C242.377 15.671 240.464 16.0795 239.089 16.8964ZM248.085 25.2651V22.9637C247.547 21.9077 246.252 21.3797 244.2 21.3797C241.749 21.6586 240.454 22.615 240.314 24.2489C240.454 25.8629 241.749 26.7396 244.2 26.8791C246.252 26.8791 247.547 26.3411 248.085 25.2651Z" fill="#FD2D01"/>
</svg>
